<?xml version="1.0" encoding="UTF-8" standalone="no" ?>
<!DOCTYPE svg PUBLIC "-//W3C//DTD SVG 1.1//EN" "http://www.w3.org/Graphics/SVG/1.1/DTD/svg11.dtd">
<svg xmlns="http://www.w3.org/2000/svg" xmlns:xlink="http://www.w3.org/1999/xlink" version="1.1" width="1200" height="900" viewBox="0 0 1200 900" xml:space="preserve">
<desc>Created with Fabric.js 4.2.0</desc>
<defs>
</defs>
<g transform="matrix(0 0 0 0 0 0)" id="afb12e04-9c14-4a63-9477-27f4a7adc27a"  >
</g>
<g transform="matrix(1 0 0 1 600 450)" id="39730508-2ed2-490b-931c-38a887ec80c5"  >
<rect style="stroke: none; stroke-width: 1; stroke-dasharray: none; stroke-linecap: butt; stroke-dashoffset: 0; stroke-linejoin: miter; stroke-miterlimit: 4; fill: rgb(0,0,0); fill-opacity: 0; fill-rule: nonzero; opacity: 1;" vector-effect="non-scaling-stroke"  x="-600" y="-450" rx="0" ry="0" width="1200" height="900" />
</g>
<g transform="matrix(9.34 0 0 9.34 685.92 372.88)"  >
<path style="stroke: rgb(0,0,0); stroke-width: 0; stroke-dasharray: none; stroke-linecap: butt; stroke-dashoffset: 0; stroke-linejoin: miter; stroke-miterlimit: 4; fill: rgb(101,101,101); fill-rule: nonzero; opacity: 1;" vector-effect="non-scaling-stroke"  transform=" translate(-50, -50)" d="M 87.103 50.023 C 87.103 60.261 83.5 69.057 76.24199999999999 76.31400000000001 C 68.985 83.571 60.236 87.176 50 87.176 C 39.760999999999996 87.176 31.015 83.572 23.759 76.31400000000001 C 16.5 69.057 12.897 60.261 12.897 50.023 C 12.897 39.739000000000004 16.5 30.992000000000004 23.759 23.734 C 31.014 16.477000000000004 39.760000000000005 12.824000000000002 50 12.824000000000002 C 60.236000000000004 12.824000000000002 68.985 16.477 76.241 23.734 C 83.5 30.992 87.103 39.739 87.103 50.023 z M 44.903 41.228 L 35.677 25.177000000000003 C 31.352 27.676000000000002 27.938 31.088 25.342 35.413000000000004 C 22.796 39.74 21.546999999999997 44.496 21.546999999999997 49.735 L 39.955999999999996 49.735 C 39.956 45.842 41.588 43.006 44.903 41.228 z M 63.984 74.68 L 54.854 58.57900000000001 C 53.987 59.10600000000001 53.172 59.492000000000004 52.304 59.684000000000005 C 51.49 59.876000000000005 50.625 59.972 49.615 59.972 C 47.883 59.972 46.346000000000004 59.54 44.903000000000006 58.578 L 35.485 74.68 C 39.906 77.13000000000001 44.665 78.38000000000001 49.854 78.38000000000001 C 54.951 78.38 59.66 77.178 63.984 74.68 z M 55.335 50.071 C 55.335 48.534 54.855000000000004 47.236 53.795 46.178 C 52.738 45.122 51.441 44.592 49.904 44.592 C 48.46 44.592 47.166000000000004 45.122 46.059000000000005 46.178 C 44.903000000000006 47.236 44.377 48.534 44.377 50.071 C 44.377 51.608999999999995 44.903000000000006 52.955999999999996 45.914 54.013 C 46.97 55.07 48.318 55.598 49.904 55.598 C 51.395 55.598 52.643 55.022 53.749 53.917 C 54.805 52.859 55.335 51.562 55.335 50.071 z M 78.453 49.735 C 78.453 44.688 77.20100000000001 40.027 74.654 35.652 C 72.158 31.327 68.64699999999999 27.819000000000003 64.08099999999999 25.176000000000002 L 54.950999999999986 41.132000000000005 C 58.16999999999999 43.2 59.755999999999986 46.034000000000006 59.755999999999986 49.73500000000001 L 78.453 49.73500000000001 z" stroke-linecap="round" />
</g>
<g transform="matrix(1 0 0 1 394.63 219.83)"  >
<path style="stroke: rgb(200,20,20); stroke-width: 30; stroke-dasharray: none; stroke-linecap: round; stroke-dashoffset: 0; stroke-linejoin: round; stroke-miterlimit: 10; fill: none; fill-rule: nonzero; opacity: 1;" vector-effect="non-scaling-stroke"  transform=" translate(-394.63, -219.83)" d="M 341.58417316028533 178.57678626890316 Q 341.58417316028533 178.60678626890316 341.58417316028533 181.78924728057595 Q 341.58417316028533 184.97170829224874 341.58417316028533 194.51909132726712 Q 341.58417316028533 204.0664743622855 339.46253233320283 210.4313963856311 Q 337.3408915061203 216.79631840897667 336.280071092579 225.2828811067708 Q 335.21925067903777 233.76944380456493 335.21925067903777 239.07354549068626 Q 335.21925067903777 244.37764717680759 335.21925067903777 247.5601081884804 Q 335.21925067903777 250.74256920015318 335.21925067903777 253.92503021182597 Q 335.21925067903777 257.10749122349876 334.15843026549646 260.28995223517154 Q 333.0976098519552 263.4724132468443 333.0976098519552 267.7156945957414 Q 333.0976098519552 271.95897594463844 333.0976098519552 274.080616619087 Q 333.0976098519552 276.2022572935355 333.0976098519552 278.32389796798407 Q 333.0976098519552 280.44553864243255 333.0976098519552 281.50635897965685 Q 333.0976098519552 282.5671793168811 333.0976098519552 283.62799965410534 Q 333.0976098519552 284.68881999132964 333.0976098519552 285.74964032855394 Q 333.0976098519552 286.8104606657782 333.0976098519552 289.99292167745097 Q 333.0976098519552 293.17538268912375 333.0976098519552 294.236203026348 Q 333.0976098519552 295.2970233635723 333.0976098519552 296.35784370079654 Q 333.0976098519552 297.4186640380208 333.0976098519552 298.4794843752451 Q 333.0976098519552 299.5403047124693 333.0976098519552 300.60112504969356 Q 333.0976098519552 301.66194538691786 333.0976098519552 302.72276572414216 Q 333.0976098519552 303.7835860613664 333.0976098519552 304.84440639859065 Q 333.0976098519552 305.9052267358149 333.0976098519552 306.96604707303914 Q 333.0976098519552 308.02686741026343 333.0976098519552 309.08768774748773 Q 333.0976098519552 310.148508084712 333.0976098519552 311.2093284219362 Q 333.0976098519552 312.27014875916046 333.0976098519552 311.2093284219362 Q 333.0976098519552 310.148508084712 333.0976098519552 306.9660470730392 Q 333.0976098519552 303.7835860613664 333.0976098519552 302.72276572414216 Q 333.0976098519552 301.66194538691786 333.0976098519552 298.4794843752451 Q 333.0976098519552 295.2970233635723 333.0976098519552 291.0537420146752 Q 333.0976098519552 286.8104606657782 333.0976098519552 282.5671793168811 Q 333.0976098519552 278.323897967984 333.0976098519552 274.080616619087 Q 333.0976098519552 269.8373352701899 334.15843026549646 267.7156945957414 Q 335.21925067903777 265.59405392129287 335.21925067903777 260.28995223517154 Q 335.21925067903777 254.9858505490502 336.280071092579 252.8642098746017 Q 337.3408915061203 250.74256920015318 337.3408915061203 248.62092852570464 Q 337.3408915061203 246.4992878512561 337.3408915061203 245.43846751403186 Q 337.3408915061203 244.37764717680759 337.3408915061203 242.25600650235907 Q 337.3408915061203 240.13436582791053 337.3408915061203 238.012725153462 Q 337.3408915061203 235.89108447901344 337.3408915061203 232.70862346734066 Q 337.3408915061203 229.52616245566787 337.3408915061203 228.4653421184436 Q 337.3408915061203 227.40452178121933 337.3408915061203 226.3437014439951 Q 337.3408915061203 225.28288110677082 337.3408915061203 223.1612404323223 Q 337.3408915061203 221.03959975787376 337.3408915061203 219.97877942064952 Q 337.3408915061203 218.91795908342525 337.3408915061203 214.6746777345282 Q 337.3408915061203 210.4313963856311 337.3408915061203 208.30975571118256 Q 337.3408915061203 206.18811503673405 337.3408915061203 204.06647436228553 Q 337.3408915061203 201.944833687837 337.3408915061203 199.82319301338845 Q 337.3408915061203 197.70155233893993 337.3408915061203 196.64073200171566 Q 337.3408915061203 195.5799116644914 337.3408915061203 194.51909132726712 Q 337.3408915061203 193.45827099004288 337.3408915061203 192.3974506528186 Q 337.3408915061203 191.33663031559433 337.3408915061203 190.2758099783701 Q 337.3408915061203 189.21498964114582 337.3408915061203 188.15416930392155 Q 337.3408915061203 187.0933489666973 337.3408915061203 186.032528629473 Q 337.3408915061203 184.97170829224874 337.3408915061203 183.91088795502446 Q 337.3408915061203 182.85006761780022 337.3408915061203 181.78924728057598 Q 337.3408915061203 180.7284269433517 338.4017119196615 180.7284269433517 Q 339.4625323332028 180.7284269433517 340.5233527467441 180.7284269433517 Q 341.58417316028533 180.7284269433517 342.6449935738266 180.7284269433517 Q 343.7058139873678 180.7284269433517 344.7666344009091 180.7284269433517 Q 345.82745481445033 180.7284269433517 347.94909564153284 180.7284269433517 Q 350.07073646861534 180.7284269433517 351.1315568821566 181.78924728057598 Q 352.1923772956979 182.85006761780022 354.31401812278045 183.91088795502446 Q 356.43565894986295 184.97170829224874 358.55729977694546 186.032528629473 Q 360.67894060402796 187.0933489666973 365.9830426717342 191.33663031559433 Q 371.2871447394405 195.5799116644914 373.4087855665231 197.70155233893993 Q 375.5304263936056 199.82319301338848 378.71288763422933 203.00565402506126 Q 381.89534887485314 206.18811503673405 384.01698970193564 208.30975571118256 Q 386.13863052901814 210.4313963856311 387.19945094255945 212.55303706007965 Q 388.2602713561007 214.67467773452816 392.5035530102657 219.9787794206495 Q 396.7468346644307 225.28288110677082 397.80765507797196 226.3437014439951 Q 398.86847549151327 227.40452178121933 399.9292959050545 231.6478031301164 Q 400.99011631859577 235.89108447901344 403.1117571456783 238.012725153462 Q 405.2333979727608 240.13436582791053 407.3550387998433 242.25600650235907 Q 409.4766796269259 244.37764717680759 412.6591408675497 248.62092852570464 Q 415.84160210817345 252.8642098746017 415.84160210817345 254.9858505490502 Q 415.84160210817345 257.10749122349876 416.9024225217147 259.2291318979473 Q 417.9632429352559 261.35077257239584 417.9632429352559 263.4724132468443 Q 417.9632429352559 265.59405392129287 420.0848837623384 267.7156945957414 Q 422.2065245894209 269.8373352701899 423.2673450029622 270.8981556074142 Q 424.32816541650345 271.95897594463844 425.3889858300447 273.0197962818627 Q 426.449806243586 274.080616619087 426.449806243586 275.1414369563113 Q 426.449806243586 276.2022572935355 426.449806243586 277.26307763075977 Q 426.449806243586 278.323897967984 427.51062665712726 279.38471830520825 Q 428.5714470706685 280.44553864243255 428.5714470706685 281.50635897965685 Q 428.5714470706685 282.5671793168811 428.5714470706685 283.62799965410534 Q 428.5714470706685 284.68881999132964 429.63226748420976 285.74964032855394 Q 430.693087897751 286.8104606657782 431.75390831129226 286.8104606657782 Q 432.8147287248335 286.8104606657782 432.8147287248335 287.8712810030024 Q 432.8147287248335 288.93210134022667 433.8755491383748 288.93210134022667 Q 434.9363695519161 288.93210134022667 434.9363695519161 289.9929216774509 Q 434.9363695519161 291.0537420146752 434.9363695519161 292.1145623518995 Q 434.9363695519161 293.17538268912375 434.9363695519161 292.1145623518995 Q 434.9363695519161 291.0537420146752 435.9971899654573 288.9321013402267 Q 437.0580103789986 286.8104606657782 437.0580103789986 284.68881999132964 Q 437.0580103789986 282.5671793168811 438.1188307925398 278.32389796798407 Q 439.1796512060811 274.080616619087 440.2404716196223 262.4115929096201 Q 441.30129203316363 250.74256920015318 443.42293286024614 238.012725153462 Q 445.54457368732864 225.28288110677082 446.60539410086994 214.67467773452816 Q 447.6662145144112 204.0664743622855 449.7878553414937 191.33663031559433 Q 451.9094961685762 178.60678626890316 452.97031658211745 164.81612188498772 Q 454.0311369956587 151.02545750107228 455.09195740919995 148.90381682662377 Q 456.1527778227412 146.78217615217525 456.1527778227412 144.6605354777267 Q 456.1527778227412 142.53889480327817 456.1527778227412 141.4780744660539 Q 456.1527778227412 140.41725412882965 456.1527778227412 139.35643379160538 Q 456.1527778227412 138.2956134543811 456.1527778227412 136.17397277993257 Q 456.1527778227412 134.05233210548406 456.1527778227412 132.99151176825978 Q 456.1527778227412 131.93069143103554 456.1527778227412 130.86987109381127 Q 456.1527778227412 129.809050756587 456.1527778227412 128.74823041936273 L 456.1527778227412 127.65741008213847" stroke-linecap="round" />
</g>
<g transform="matrix(1 0 0 1 518.74 274.08)"  >
<path style="stroke: rgb(200,20,20); stroke-width: 30; stroke-dasharray: none; stroke-linecap: round; stroke-dashoffset: 0; stroke-linejoin: round; stroke-miterlimit: 10; fill: none; fill-rule: nonzero; opacity: 1;" vector-effect="non-scaling-stroke"  transform=" translate(-518.74, -274.08)" d="M 477.3391860935664 244.4076471768076 Q 477.3691860935664 244.37764717680759 481.61246774773144 243.3168268395833 Q 485.85574940189645 242.25600650235904 492.220671883144 240.1343658279105 Q 498.58559436439157 238.01272515346196 502.82887601855657 235.89108447901344 Q 507.07215767272163 233.76944380456493 510.25461891334544 233.76944380456493 Q 513.4370801539692 233.76944380456493 519.8020026352167 231.64780313011642 Q 526.1669251164643 229.52616245566787 528.2885659435468 228.4653421184436 Q 530.4102067706293 227.40452178121933 535.7143088383357 227.40452178121933 Q 541.0184109060419 227.40452178121933 543.1400517331244 227.40452178121933 Q 545.2616925602069 227.40452178121933 546.3225129737482 227.40452178121933 Q 547.3833333872894 227.40452178121933 549.5049742143719 227.40452178121933 Q 551.6266150414546 227.40452178121933 552.6874354549958 227.40452178121933 Q 553.7482558685371 227.40452178121933 555.8698966956196 228.4653421184436 Q 557.9915375227021 229.52616245566787 559.0523579362433 229.52616245566787 Q 560.1131783497846 229.52616245566787 561.1739987633258 230.58698279289214 Q 562.2348191768671 231.64780313011642 563.2956395904084 232.70862346734066 Q 564.3564600039497 233.76944380456493 564.3564600039497 234.8302641417892 Q 564.3564600039497 235.89108447901344 567.5389212445734 236.9519048162377 Q 570.7213824851972 238.01272515346196 570.7213824851972 239.07354549068623 Q 570.7213824851972 240.13436582791053 570.7213824851972 242.25600650235907 Q 570.7213824851972 244.37764717680759 571.7822028987384 244.37764717680759 Q 572.8430233122797 244.37764717680759 572.8430233122797 245.43846751403186 Q 572.8430233122797 246.4992878512561 572.8430233122797 247.56010818848034 Q 572.8430233122797 248.6209285257046 573.9038437258209 249.68174886292888 Q 574.9646641393622 250.74256920015318 574.9646641393622 251.80338953737743 Q 574.9646641393622 252.8642098746017 574.9646641393622 253.92503021182597 Q 574.9646641393622 254.9858505490502 574.9646641393622 257.10749122349876 Q 574.9646641393622 259.22913189794724 574.9646641393622 260.28995223517154 Q 574.9646641393622 261.35077257239584 574.9646641393622 262.4115929096201 Q 574.9646641393622 263.4724132468443 574.9646641393622 264.5332335840686 Q 574.9646641393622 265.59405392129287 574.9646641393622 266.6548742585171 Q 574.9646641393622 267.7156945957414 574.9646641393622 268.77651493296565 Q 574.9646641393622 269.8373352701899 573.9038437258209 270.8981556074142 Q 572.8430233122797 271.95897594463844 572.8430233122797 273.0197962818627 Q 572.8430233122797 274.080616619087 571.7822028987384 275.1414369563113 Q 570.7213824851972 276.2022572935355 570.7213824851972 279.3847183052083 Q 570.7213824851972 282.5671793168811 568.5997416581147 284.68881999132964 Q 566.4781008310321 286.8104606657782 564.3564600039496 287.8712810030024 Q 562.2348191768671 288.93210134022667 560.1131783497846 291.0537420146752 Q 557.9915375227021 293.17538268912375 555.8698966956196 295.2970233635723 Q 553.7482558685371 297.4186640380208 549.5049742143719 301.66194538691786 Q 545.2616925602069 305.9052267358149 543.1400517331244 306.96604707303914 Q 541.0184109060419 308.02686741026343 538.8967700789594 310.1485080847119 Q 536.7751292518769 312.27014875916046 533.5926680112532 313.33096909638476 Q 530.4102067706293 314.39178943360906 529.3493863570881 314.39178943360906 Q 528.2885659435468 314.39178943360906 524.0452842893817 316.5134301080576 Q 519.8020026352167 318.6350707825061 517.6803618081342 319.6958911197304 Q 515.5587209810517 320.75671145695463 513.4370801539692 320.75671145695463 Q 511.3154393268867 320.75671145695463 509.1937984998042 320.75671145695463 Q 507.07215767272163 320.75671145695463 506.0113372591804 320.75671145695463 Q 504.95051684563913 320.75671145695463 501.7680556050153 320.75671145695463 Q 498.58559436439157 320.75671145695463 496.46395353730907 320.75671145695463 Q 494.34231271022657 320.75671145695463 493.2814922966853 320.75671145695463 Q 492.220671883144 320.75671145695463 491.15985146960276 320.75671145695463 Q 490.0990310560615 320.75671145695463 487.97739022897895 320.75671145695463 Q 485.85574940189645 320.75671145695463 483.73410857481394 320.75671145695463 Q 481.61246774773144 320.75671145695463 479.49082692064894 319.6958911197304 Q 477.3691860935664 318.6350707825061 476.3083656800251 318.6350707825061 Q 475.2475452664838 318.6350707825061 474.1867248529426 318.6350707825061 Q 473.1259044394014 318.6350707825061 471.0042636123189 317.5742504452818 Q 468.8826227852364 316.51343010805755 467.82180237169507 316.51343010805755 Q 466.7609819581538 316.51343010805755 466.7609819581538 315.4526097708333 Q 466.7609819581538 314.39178943360906 466.7609819581538 313.33096909638476 Q 466.7609819581538 312.27014875916046 464.6393411310713 312.27014875916046 Q 462.5177003039888 312.27014875916046 462.5177003039888 310.1485080847119 Q 462.5177003039888 308.02686741026343 462.5177003039888 306.96604707303914 Q 462.5177003039888 305.9052267358149 462.5177003039888 304.84440639859065 Q 462.5177003039888 303.7835860613664 462.5177003039888 301.66194538691786 Q 462.5177003039888 299.5403047124693 462.5177003039888 297.4186640380208 Q 462.5177003039888 295.2970233635723 462.5177003039888 293.17538268912375 Q 462.5177003039888 291.0537420146752 462.5177003039888 289.9929216774509 Q 462.5177003039888 288.93210134022667 462.5177003039888 287.8712810030024 Q 462.5177003039888 286.8104606657782 463.57852071753007 286.8104606657782 Q 464.63934113107126 286.8104606657782 464.63934113107126 285.74964032855394 Q 464.63934113107126 284.68881999132964 464.63934113107126 283.62799965410534 Q 464.63934113107126 282.5671793168811 465.70016154461257 281.50635897965685 Q 466.7609819581538 280.44553864243255 467.82180237169507 279.38471830520825 Q 468.8826227852364 278.323897967984 468.8826227852364 277.26307763075977 Q 468.8826227852364 276.2022572935355 469.9434431987776 275.1414369563113 Q 471.0042636123188 274.080616619087 472.0650840258601 274.080616619087 Q 473.1259044394014 274.080616619087 473.1259044394014 273.0197962818627 Q 473.1259044394014 271.95897594463844 473.1259044394014 270.8981556074142 Q 473.1259044394014 269.8373352701899 474.1867248529426 269.8373352701899 Q 475.2475452664838 269.8373352701899 476.3083656800251 269.8373352701899 Q 477.3691860935664 269.8373352701899 477.3691860935664 267.7156945957414 Q 477.3691860935664 265.59405392129287 478.4300065071077 265.59405392129287 Q 479.49082692064894 265.59405392129287 480.5516473341902 265.59405392129287 Q 481.61246774773144 265.59405392129287 481.61246774773144 264.5332335840686 Q 481.61246774773144 263.4724132468443 481.61246774773144 262.4115929096201 Q 481.61246774773144 261.35077257239584 482.6732881612727 261.35077257239584 Q 483.73410857481394 261.35077257239584 484.7949289883552 261.35077257239584 Q 485.85574940189645 261.35077257239584 486.9165698154377 261.35077257239584 Q 487.977390228979 261.35077257239584 487.977390228979 260.28995223517154 Q 487.977390228979 259.22913189794724 487.977390228979 258.168311560723 L 487.977390228979 257.0774912234988" stroke-linecap="round" />
</g>
<g transform="matrix(1 0 0 1 630.13 236.95)"  >
<path style="stroke: rgb(200,20,20); stroke-width: 30; stroke-dasharray: none; stroke-linecap: round; stroke-dashoffset: 0; stroke-linejoin: round; stroke-miterlimit: 10; fill: none; fill-rule: nonzero; opacity: 1;" vector-effect="non-scaling-stroke"  transform=" translate(-630.13, -236.95)" d="M 638.6138889518378 142.50889480327817 Q 638.6138889518378 142.53889480327817 638.6138889518378 144.6605354777267 Q 638.6138889518378 146.78217615217525 638.6138889518378 152.08627783829655 Q 638.6138889518378 157.39037952441788 638.6138889518378 162.6944812105392 Q 638.6138889518378 167.99858289666054 638.6138889518378 170.12022357110905 Q 638.6138889518378 172.24186424555757 638.6138889518378 175.42432525723035 Q 638.6138889518378 178.60678626890316 638.6138889518378 181.78924728057595 Q 638.6138889518378 184.97170829224874 637.5530685382964 189.2149896411458 Q 636.4922481247552 193.45827099004288 636.4922481247552 197.70155233893993 Q 636.4922481247552 201.944833687837 636.4922481247552 204.06647436228553 Q 636.4922481247552 206.18811503673405 636.4922481247552 209.37057604840686 Q 636.4922481247552 212.55303706007965 636.4922481247552 218.91795908342522 Q 636.4922481247552 225.28288110677082 636.4922481247552 226.3437014439951 Q 636.4922481247552 227.40452178121933 636.4922481247552 230.58698279289212 Q 636.4922481247552 233.76944380456493 636.4922481247552 234.8302641417892 Q 636.4922481247552 235.89108447901344 636.4922481247552 239.07354549068623 Q 636.4922481247552 242.25600650235904 636.4922481247552 243.3168268395833 Q 636.4922481247552 244.37764717680759 636.4922481247552 247.5601081884804 Q 636.4922481247552 250.74256920015318 636.4922481247552 251.80338953737743 Q 636.4922481247552 252.8642098746017 635.4314277112139 254.9858505490502 Q 634.3706072976727 257.10749122349876 634.3706072976727 261.35077257239584 Q 634.3706072976727 265.59405392129287 633.3097868841314 266.6548742585171 Q 632.2489664705902 267.7156945957414 632.2489664705902 268.77651493296565 Q 632.2489664705902 269.8373352701899 632.2489664705902 271.95897594463844 Q 632.2489664705902 274.080616619087 631.1881460570489 275.1414369563113 Q 630.1273256435077 276.2022572935355 630.1273256435077 279.3847183052083 Q 630.1273256435077 282.5671793168811 630.1273256435077 283.62799965410534 Q 630.1273256435077 284.68881999132964 629.0665052299664 285.74964032855394 Q 628.0056848164252 286.8104606657782 628.0056848164252 288.9321013402267 Q 628.0056848164252 291.0537420146752 626.9448644028839 292.1145623518995 Q 625.8840439893426 293.17538268912375 625.8840439893426 294.236203026348 Q 625.8840439893426 295.2970233635723 624.8232235758013 295.2970233635723 Q 623.7624031622601 295.2970233635723 623.7624031622601 297.4186640380208 Q 623.7624031622601 299.5403047124693 622.7015827487188 300.60112504969356 Q 621.6407623351776 301.66194538691786 621.6407623351776 302.72276572414216 Q 621.6407623351776 303.7835860613664 621.6407623351776 304.84440639859065 Q 621.6407623351776 305.9052267358149 621.6407623351776 306.96604707303914 Q 621.6407623351776 308.02686741026343 621.6407623351776 309.08768774748773 Q 621.6407623351776 310.148508084712 621.6407623351776 311.2093284219362 Q 621.6407623351776 312.27014875916046 621.6407623351776 313.33096909638476 Q 621.6407623351776 314.39178943360906 621.6407623351776 316.5134301080576 Q 621.6407623351776 318.6350707825061 621.6407623351776 319.6958911197304 Q 621.6407623351776 320.75671145695463 621.6407623351776 321.8175317941789 Q 621.6407623351776 322.8783521314031 621.6407623351776 324.99999280585166 Q 621.6407623351776 327.1216334803002 621.6407623351776 328.18245381752445 Q 621.6407623351776 329.24327415474875 621.6407623351776 330.304094491973 L 621.6407623351776 331.3949148291972" stroke-linecap="round" />
</g>
<g transform="matrix(1 0 0 1 660.89 215.73)"  >
<path style="stroke: rgb(200,20,20); stroke-width: 30; stroke-dasharray: none; stroke-linecap: round; stroke-dashoffset: 0; stroke-linejoin: round; stroke-miterlimit: 10; fill: none; fill-rule: nonzero; opacity: 1;" vector-effect="non-scaling-stroke"  transform=" translate(-660.89, -215.74)" d="M 608.8809173726825 221.03959975787376 Q 608.9109173726824 221.03959975787376 613.1541990268474 221.03959975787376 Q 617.3974806810126 221.03959975787376 620.5799419216363 221.03959975787376 Q 623.7624031622601 221.03959975787376 628.0056848164252 219.97877942064952 Q 632.2489664705902 218.91795908342525 635.4314277112139 218.91795908342525 Q 638.6138889518378 218.91795908342525 640.7355297789203 218.91795908342525 Q 642.8571706060028 218.91795908342525 644.9788114330853 218.91795908342525 Q 647.1004522601678 218.91795908342525 650.2829135007916 218.91795908342525 Q 653.4653747414153 218.91795908342525 654.5261951549566 218.91795908342525 Q 655.5870155684978 218.91795908342525 656.6478359820392 218.91795908342525 Q 657.7086563955804 218.91795908342525 658.7694768091217 218.91795908342525 Q 659.8302972226629 218.91795908342525 660.8911176362042 218.91795908342525 Q 661.9519380497454 218.91795908342525 663.0127584632867 218.91795908342525 Q 664.0735788768279 218.91795908342525 665.1343992903692 218.91795908342525 Q 666.1952197039104 218.91795908342525 667.2560401174517 218.91795908342525 Q 668.3168605309929 218.91795908342525 669.3776809445342 218.91795908342525 Q 670.4385013580755 218.91795908342525 671.4993217716167 217.85713874620097 Q 672.5601421851579 216.79631840897667 674.6817830122404 216.79631840897667 Q 676.803423839323 216.79631840897667 678.9250646664055 215.73549807175243 Q 681.046705493488 214.67467773452816 683.1683463205705 214.67467773452816 Q 685.289987147653 214.67467773452816 687.4116279747357 213.6138573973039 Q 689.5332688018182 212.55303706007965 691.6549096289007 212.55303706007965 Q 693.7765504559833 212.55303706007965 695.8981912830657 212.55303706007965 Q 698.0198321101482 212.55303706007965 700.1414729372307 211.49221672285537 Q 702.2631137643133 210.4313963856311 704.3847545913957 210.4313963856311 Q 706.5063954184782 210.4313963856311 707.5672158320194 210.4313963856311 Q 708.6280362455608 210.4313963856311 709.688856659102 210.4313963856311 Q 710.7496770726433 210.4313963856311 711.8104974861847 210.4313963856311 L 712.9013178997259 210.4313963856311" stroke-linecap="round" />
</g>
<g transform="matrix(1 0 0 1 740.45 259.23)"  >
<path style="stroke: rgb(200,20,20); stroke-width: 30; stroke-dasharray: none; stroke-linecap: round; stroke-dashoffset: 0; stroke-linejoin: round; stroke-miterlimit: 10; fill: none; fill-rule: nonzero; opacity: 1;" vector-effect="non-scaling-stroke"  transform=" translate(-740.45, -259.23)" d="M 740.4226486517986 263.4724132468443 Q 740.4526486517985 263.4724132468443 741.5134690653398 263.4724132468443 Q 742.574289478881 263.4724132468443 745.7567507195048 263.4724132468443 Q 748.9392119601285 263.4724132468443 751.0608527872112 263.4724132468443 Q 753.1824936142937 263.4724132468443 755.3041344413762 263.4724132468443 Q 757.4257752684588 263.4724132468443 758.4865956819999 263.4724132468443 Q 759.5474160955412 263.4724132468443 761.6690569226237 263.4724132468443 Q 763.7906977497063 263.4724132468443 764.8515181632475 263.4724132468443 Q 765.9123385767888 263.4724132468443 766.97315899033 263.4724132468443 Q 768.0339794038713 263.4724132468443 769.0947998174125 263.4724132468443 Q 770.1556202309538 263.4724132468443 771.216440644495 263.4724132468443 Q 772.2772610580363 263.4724132468443 772.2772610580363 262.4115929096201 Q 772.2772610580363 261.35077257239584 773.3380814715775 261.35077257239584 Q 774.3989018851188 261.35077257239584 775.4597222986602 260.28995223517154 Q 776.5205427122014 259.22913189794724 776.5205427122014 257.10749122349876 Q 776.5205427122014 254.9858505490502 777.5813631257427 253.92503021182597 Q 778.6421835392839 252.8642098746017 778.6421835392839 251.80338953737743 Q 778.6421835392839 250.74256920015318 778.6421835392839 247.5601081884804 Q 778.6421835392839 244.37764717680759 779.7030039528252 243.3168268395833 Q 780.7638243663663 242.25600650235904 780.7638243663663 241.19518616513477 Q 780.7638243663663 240.13436582791053 780.7638243663663 235.89108447901347 Q 780.7638243663663 231.64780313011642 780.7638243663663 230.58698279289214 Q 780.7638243663663 229.52616245566787 780.7638243663663 228.4653421184436 Q 780.7638243663663 227.40452178121933 780.7638243663663 226.3437014439951 Q 780.7638243663663 225.28288110677082 779.7030039528252 224.22206076954654 Q 778.6421835392839 223.16124043232227 776.5205427122014 222.100420095098 Q 774.3989018851188 221.03959975787376 773.3380814715775 219.97877942064952 Q 772.2772610580363 218.91795908342525 765.9123385767887 216.7963184089767 Q 759.5474160955412 214.67467773452816 758.4865956819999 214.67467773452816 Q 757.4257752684588 214.67467773452816 755.3041344413762 213.6138573973039 Q 753.1824936142937 212.55303706007965 751.0608527872112 212.55303706007965 Q 748.9392119601285 212.55303706007965 746.8175711330462 212.55303706007965 Q 744.6959303059637 212.55303706007965 741.5134690653398 212.55303706007965 Q 738.3310078247159 212.55303706007965 736.2093669976334 212.55303706007965 Q 734.087726170551 212.55303706007965 733.0269057570098 213.6138573973039 Q 731.9660853434685 214.67467773452816 730.9052649299272 214.67467773452816 Q 729.8444445163859 214.67467773452816 728.7836241028447 214.67467773452816 Q 727.7228036893034 214.67467773452816 725.6011628622209 216.7963184089767 Q 723.4795220351384 218.91795908342525 722.4187016215972 218.91795908342525 Q 721.3578812080559 218.91795908342525 720.2970607945147 218.91795908342525 Q 719.2362403809733 218.91795908342525 719.2362403809733 219.97877942064952 Q 719.2362403809733 221.03959975787376 718.175419967432 221.03959975787376 Q 717.1145995538908 221.03959975787376 716.0537791403497 222.100420095098 Q 714.9929587268084 223.16124043232227 714.9929587268084 224.22206076954654 Q 714.9929587268084 225.28288110677082 714.9929587268084 226.3437014439951 Q 714.9929587268084 227.40452178121933 713.9321383132672 227.40452178121933 Q 712.8713178997259 227.40452178121933 710.7496770726434 230.58698279289212 Q 708.6280362455608 233.76944380456493 708.6280362455608 234.8302641417892 Q 708.6280362455608 235.89108447901344 706.5063954184783 240.13436582791053 Q 704.3847545913958 244.37764717680759 703.3239341778545 246.4992878512561 Q 702.2631137643133 248.6209285257046 702.2631137643133 250.74256920015316 Q 702.2631137643133 252.8642098746017 701.2022933507719 254.9858505490502 Q 700.1414729372307 257.10749122349876 700.1414729372307 259.2291318979473 Q 700.1414729372307 261.35077257239584 700.1414729372307 264.5332335840686 Q 700.1414729372307 267.7156945957414 700.1414729372307 271.9589759446385 Q 700.1414729372307 276.2022572935355 700.1414729372307 278.32389796798407 Q 700.1414729372307 280.44553864243255 700.1414729372307 282.5671793168811 Q 700.1414729372307 284.68881999132964 701.2022933507719 285.74964032855394 Q 702.2631137643133 286.8104606657782 703.3239341778545 287.8712810030024 Q 704.3847545913958 288.93210134022667 704.3847545913958 291.0537420146752 Q 704.3847545913958 293.17538268912375 705.4455750049369 294.236203026348 Q 706.5063954184782 295.2970233635723 706.5063954184782 296.35784370079654 Q 706.5063954184782 297.4186640380208 706.5063954184782 299.5403047124693 Q 706.5063954184782 301.66194538691786 708.6280362455607 301.66194538691786 Q 710.7496770726433 301.66194538691786 711.8104974861847 302.72276572414216 Q 712.8713178997259 303.7835860613664 713.9321383132672 303.7835860613664 Q 714.9929587268084 303.7835860613664 716.0537791403497 303.7835860613664 Q 717.1145995538908 303.7835860613664 719.2362403809734 303.7835860613664 Q 721.3578812080559 303.7835860613664 723.4795220351384 304.84440639859065 Q 725.601162862221 305.9052267358149 726.6619832757622 305.9052267358149 Q 727.7228036893034 305.9052267358149 729.8444445163859 305.9052267358149 Q 731.9660853434685 305.9052267358149 734.087726170551 305.9052267358149 Q 736.2093669976335 305.9052267358149 737.2701874111747 305.9052267358149 Q 738.3310078247159 305.9052267358149 739.3918282382572 305.9052267358149 Q 740.4526486517985 305.9052267358149 741.5134690653398 305.9052267358149 Q 742.574289478881 305.9052267358149 743.6351098924224 305.9052267358149 Q 744.6959303059637 305.9052267358149 745.7567507195049 305.9052267358149 Q 746.8175711330462 305.9052267358149 747.8783915465874 305.9052267358149 Q 748.9392119601285 305.9052267358149 750.0000323736699 305.9052267358149 Q 751.0608527872112 305.9052267358149 752.1216732007524 305.9052267358149 Q 753.1824936142937 305.9052267358149 754.2433140278349 305.9052267358149 Q 755.3041344413762 305.9052267358149 756.3649548549174 305.9052267358149 L 757.4557752684588 305.9052267358149" stroke-linecap="round" />
</g>
<g transform="matrix(1 0 0 1 857.14 262.41)"  >
<path style="stroke: rgb(200,20,20); stroke-width: 30; stroke-dasharray: none; stroke-linecap: round; stroke-dashoffset: 0; stroke-linejoin: round; stroke-miterlimit: 10; fill: none; fill-rule: nonzero; opacity: 1;" vector-effect="non-scaling-stroke"  transform=" translate(-857.14, -262.41)" d="M 897.4840698559047 210.4613963856311 Q 897.4540698559048 210.4313963856311 895.3324290288223 210.4313963856311 Q 893.2107882017398 210.4313963856311 891.0891473746573 209.37057604840686 Q 888.9675065475748 208.3097557111826 886.8458657204923 207.24893537395832 Q 884.7242248934098 206.18811503673405 879.4201228257034 205.12729469950978 Q 874.1160207579971 204.0664743622855 871.9943799309146 203.00565402506123 Q 869.8727391038321 201.944833687837 866.6902778632084 201.944833687837 Q 863.5078166225846 201.944833687837 861.3861757955021 201.944833687837 Q 859.2645349684195 201.944833687837 856.0820737277958 201.944833687837 Q 852.899612487172 201.944833687837 849.7171512465482 201.944833687837 Q 846.5346900059244 201.944833687837 844.4130491788419 201.944833687837 Q 842.2914083517594 201.944833687837 841.2305879382182 201.944833687837 Q 840.1697675246769 201.944833687837 838.0481266975944 201.944833687837 Q 835.9264858705118 201.944833687837 834.8656654569705 201.944833687837 Q 833.8048450434293 201.944833687837 831.6832042163468 201.944833687837 Q 829.5615633892643 201.944833687837 829.5615633892643 203.00565402506123 Q 829.5615633892643 204.0664743622855 828.500742975723 204.0664743622855 Q 827.4399225621818 204.0664743622855 826.3791021486404 204.0664743622855 Q 825.3182817350992 204.0664743622855 824.2574613215579 204.0664743622855 Q 823.1966409080167 204.0664743622855 822.1358204944754 205.12729469950978 Q 821.0750000809343 206.18811503673405 820.014179667393 206.18811503673405 Q 818.9533592538518 206.18811503673405 817.8925388403104 206.18811503673405 Q 816.8317184267692 206.18811503673405 816.8317184267692 207.24893537395832 Q 816.8317184267692 208.3097557111826 815.7708980132279 208.3097557111826 Q 814.7100775996867 208.3097557111826 813.6492571861454 208.3097557111826 Q 812.588436772604 208.3097557111826 812.588436772604 209.37057604840686 Q 812.588436772604 210.4313963856311 811.5276163590629 210.4313963856311 Q 810.4667959455217 210.4313963856311 809.4059755319804 211.49221672285537 Q 808.3451551184392 212.55303706007965 808.3451551184392 213.6138573973039 Q 808.3451551184392 214.67467773452816 807.2843347048979 215.73549807175243 Q 806.2235142913565 216.79631840897667 805.1626938778153 217.85713874620097 Q 804.101873464274 218.91795908342525 804.101873464274 219.97877942064952 Q 804.101873464274 221.03959975787376 804.101873464274 222.100420095098 Q 804.101873464274 223.16124043232227 804.101873464274 224.22206076954654 Q 804.101873464274 225.28288110677082 804.101873464274 226.3437014439951 Q 804.101873464274 227.40452178121933 804.101873464274 228.4653421184436 Q 804.101873464274 229.52616245566787 804.101873464274 231.64780313011642 Q 804.101873464274 233.76944380456493 805.1626938778153 234.8302641417892 Q 806.2235142913565 235.89108447901344 807.2843347048979 236.9519048162377 Q 808.3451551184392 238.01272515346196 808.3451551184392 239.07354549068623 Q 808.3451551184392 240.13436582791053 809.4059755319804 242.25600650235907 Q 810.4667959455217 244.37764717680759 811.5276163590629 244.37764717680759 Q 812.588436772604 244.37764717680759 812.588436772604 245.43846751403186 Q 812.588436772604 246.4992878512561 812.588436772604 247.56010818848034 Q 812.588436772604 248.6209285257046 814.7100775996867 249.68174886292888 Q 816.8317184267692 250.74256920015318 817.8925388403104 251.80338953737743 Q 818.9533592538518 252.8642098746017 820.014179667393 252.8642098746017 Q 821.0750000809343 252.8642098746017 822.1358204944754 253.92503021182597 Q 823.1966409080167 254.9858505490502 823.1966409080167 256.04667088627446 Q 823.1966409080167 257.10749122349876 824.2574613215579 257.10749122349876 Q 825.3182817350992 257.10749122349876 827.4399225621817 258.168311560723 Q 829.5615633892643 259.22913189794724 830.6223838028056 260.28995223517154 Q 831.6832042163469 261.35077257239584 832.7440246298881 261.35077257239584 Q 833.8048450434293 261.35077257239584 834.8656654569705 261.35077257239584 Q 835.9264858705118 261.35077257239584 839.1089471111356 261.35077257239584 Q 842.2914083517594 261.35077257239584 843.3522287653007 261.35077257239584 Q 844.4130491788418 261.35077257239584 847.5955104194657 261.35077257239584 Q 850.7779716600895 261.35077257239584 852.8996124871719 261.35077257239584 Q 855.0212533142544 261.35077257239584 856.0820737277957 261.35077257239584 Q 857.142894141337 261.35077257239584 858.2037145548783 261.35077257239584 Q 859.2645349684195 261.35077257239584 861.3861757955021 261.35077257239584 Q 863.5078166225846 261.35077257239584 865.6294574496671 261.35077257239584 Q 867.7510982767495 261.35077257239584 869.8727391038321 261.35077257239584 Q 871.9943799309146 261.35077257239584 875.1768411715384 261.35077257239584 Q 878.3593024121622 261.35077257239584 880.4809432392447 261.35077257239584 Q 882.6025840663273 261.35077257239584 883.6634044798685 261.35077257239584 Q 884.7242248934098 261.35077257239584 885.7850453069509 261.35077257239584 Q 886.8458657204922 261.35077257239584 887.9066861340334 261.35077257239584 Q 888.9675065475748 261.35077257239584 891.0891473746573 261.35077257239584 Q 893.2107882017398 261.35077257239584 894.2716086152811 261.35077257239584 Q 895.3324290288224 261.35077257239584 897.4540698559049 262.4115929096201 Q 899.5757106829873 263.4724132468443 900.6365310965286 263.4724132468443 Q 901.6973515100699 263.4724132468443 901.6973515100699 265.59405392129287 Q 901.6973515100699 267.7156945957414 902.7581719236111 268.77651493296565 Q 903.8189923371524 269.8373352701899 904.8798127506936 269.8373352701899 Q 905.940633164235 269.8373352701899 905.940633164235 270.8981556074142 Q 905.940633164235 271.95897594463844 907.0014535777761 273.0197962818627 Q 908.0622739913174 274.080616619087 909.1230944048586 275.1414369563113 Q 910.1839148183999 276.2022572935355 910.1839148183999 278.32389796798407 Q 910.1839148183999 280.44553864243255 910.1839148183999 282.5671793168811 Q 910.1839148183999 284.68881999132964 910.1839148183999 285.74964032855394 Q 910.1839148183999 286.8104606657782 910.1839148183999 287.8712810030024 Q 910.1839148183999 288.93210134022667 910.1839148183999 292.1145623518995 Q 910.1839148183999 295.2970233635723 910.1839148183999 296.35784370079654 Q 910.1839148183999 297.4186640380208 910.1839148183999 298.4794843752451 Q 910.1839148183999 299.5403047124693 910.1839148183999 300.60112504969356 Q 910.1839148183999 301.66194538691786 908.0622739913174 302.72276572414216 Q 905.940633164235 303.7835860613664 904.8798127506936 303.7835860613664 Q 903.8189923371524 303.7835860613664 902.7581719236111 305.90522673581495 Q 901.6973515100699 308.02686741026343 900.6365310965286 309.08768774748773 Q 899.5757106829873 310.148508084712 898.514890269446 311.2093284219362 Q 897.4540698559048 312.27014875916046 894.271608615281 313.33096909638476 Q 891.0891473746573 314.39178943360906 891.0891473746573 315.4526097708333 Q 891.0891473746573 316.51343010805755 890.028326961116 317.5742504452818 Q 888.9675065475748 318.6350707825061 887.9066861340334 318.6350707825061 Q 886.8458657204922 318.6350707825061 885.7850453069509 318.6350707825061 Q 884.7242248934098 318.6350707825061 883.6634044798685 319.6958911197304 Q 882.6025840663273 320.75671145695463 881.5417636527859 320.75671145695463 Q 880.4809432392447 320.75671145695463 879.4201228257034 320.75671145695463 Q 878.3593024121622 320.75671145695463 877.2984819986209 321.8175317941789 Q 876.2376615850796 322.8783521314031 875.1768411715384 322.8783521314031 Q 874.1160207579971 322.8783521314031 873.0552003444559 322.8783521314031 Q 871.9943799309146 322.8783521314031 869.8727391038321 322.8783521314031 Q 867.7510982767495 322.8783521314031 866.6902778632083 322.8783521314031 Q 865.629457449667 322.8783521314031 864.5686370361259 322.8783521314031 Q 863.5078166225846 322.8783521314031 862.4469962090434 322.8783521314031 Q 861.386175795502 322.8783521314031 860.3253553819608 322.8783521314031 Q 859.2645349684195 322.8783521314031 858.2037145548783 322.8783521314031 Q 857.142894141337 322.8783521314031 855.0212533142545 322.8783521314031 Q 852.899612487172 322.8783521314031 850.7779716600894 322.8783521314031 Q 848.6563308330069 322.8783521314031 846.5346900059244 322.8783521314031 Q 844.4130491788418 322.8783521314031 843.3522287653007 322.8783521314031 Q 842.2914083517594 322.8783521314031 841.2305879382182 322.8783521314031 L 840.1397675246769 322.8783521314031" stroke-linecap="round" />
</g>
<g transform="matrix(1 0 0 1 486.91 488.37)"  >
<path style="stroke: rgb(200,20,20); stroke-width: 30; stroke-dasharray: none; stroke-linecap: round; stroke-dashoffset: 0; stroke-linejoin: round; stroke-miterlimit: 10; fill: none; fill-rule: nonzero; opacity: 1;" vector-effect="non-scaling-stroke"  transform=" translate(-486.92, -488.37)" d="M 439.20965120608105 428.9303858538296 Q 439.1796512060811 428.96038585382956 437.0580103789986 430.02120619105386 Q 434.9363695519161 431.08202652827816 433.8755491383748 434.26448753995095 Q 432.8147287248335 437.44694855162373 432.8147287248335 438.507768888848 Q 432.8147287248335 439.5685892260722 430.693087897751 440.62940956329646 Q 428.5714470706685 441.69022990052076 427.51062665712726 443.8118705749693 Q 426.449806243586 445.93351124941785 426.449806243586 446.99433158664215 Q 426.449806243586 448.0551519238664 425.3889858300447 449.11597226109063 Q 424.32816541650345 450.1767925983149 423.2673450029622 453.3592536099877 Q 422.2065245894209 456.5417146216605 421.1457041758797 456.5417146216605 Q 420.08488376233845 456.5417146216605 419.0240633487972 457.6025349588848 Q 417.9632429352559 458.66335529610905 417.9632429352559 459.7241756333333 Q 417.9632429352559 460.78499597055753 417.9632429352559 461.8458163077818 Q 417.9632429352559 462.9066366450061 417.9632429352559 465.02827731945456 Q 417.9632429352559 467.1499179939031 417.9632429352559 472.45401968002443 Q 417.9632429352559 477.75812136614576 417.9632429352559 479.8797620405943 Q 417.9632429352559 482.0014027150428 417.9632429352559 486.24468406393987 Q 417.9632429352559 490.48796541283696 420.0848837623384 493.67042642450974 Q 422.2065245894209 496.85288743618247 422.2065245894209 500.0353484478553 Q 422.2065245894209 503.2178094595281 424.32816541650345 509.5827314828737 Q 426.449806243586 515.9476535062194 428.5714470706685 517.0084738434437 Q 430.693087897751 518.0692941806678 431.75390831129226 519.130114517892 Q 432.8147287248335 520.1909348551163 432.8147287248335 522.3125755295648 Q 432.8147287248335 524.4342162040134 433.8755491383748 524.4342162040134 Q 434.9363695519161 524.4342162040134 434.9363695519161 525.4950365412376 Q 434.9363695519161 526.5558568784619 434.9363695519161 527.6166772156862 Q 434.9363695519161 528.6774975529104 435.9971899654573 528.6774975529104 Q 437.0580103789986 528.6774975529104 437.0580103789986 529.7383178901347 Q 437.0580103789986 530.799138227359 438.1188307925398 531.8599585645833 Q 439.1796512060811 532.9207789018076 441.3012920331636 532.9207789018076 Q 443.4229328602461 532.9207789018076 446.60539410086983 532.9207789018076 Q 449.78785534149364 532.9207789018076 450.84867575503495 532.9207789018076 Q 451.9094961685762 532.9207789018076 455.09195740919995 532.9207789018076 Q 458.27441864982376 532.9207789018076 459.335239063365 532.9207789018076 Q 460.39605947690626 532.9207789018076 463.57852071753007 532.9207789018076 Q 466.7609819581538 532.9207789018076 468.8826227852363 532.9207789018076 Q 471.0042636123188 532.9207789018076 474.1867248529426 531.8599585645833 Q 477.3691860935664 530.799138227359 478.4300065071077 529.7383178901347 Q 479.49082692064894 528.6774975529104 483.73410857481394 528.6774975529104 Q 487.977390228979 528.6774975529104 489.03821064252026 527.6166772156862 Q 490.0990310560615 526.5558568784619 492.22067188314406 525.4950365412376 Q 494.34231271022657 524.4342162040134 495.4031331237678 524.4342162040134 Q 496.463953537309 524.4342162040134 498.58559436439157 524.4342162040134 Q 500.7072351914741 524.4342162040134 500.7072351914741 523.3733958667892 Q 500.7072351914741 522.3125755295649 501.7680556050153 521.2517551923406 Q 502.82887601855657 520.1909348551163 502.82887601855657 519.130114517892 Q 502.82887601855657 518.0692941806678 502.82887601855657 517.0084738434437 Q 502.82887601855657 515.9476535062194 502.82887601855657 513.8260128317709 Q 502.82887601855657 511.70437215732227 502.82887601855657 510.64355182009797 Q 502.82887601855657 509.5827314828737 502.82887601855657 508.5219111456494 Q 502.82887601855657 507.4610908084251 502.82887601855657 505.3394501339766 Q 502.82887601855657 503.2178094595281 502.82887601855657 501.0961687850796 Q 502.82887601855657 498.97452811063107 502.82887601855657 496.8528874361825 Q 502.82887601855657 494.731246761734 502.82887601855657 492.60960608728544 Q 502.82887601855657 490.48796541283696 502.82887601855657 489.42714507561266 Q 502.82887601855657 488.3663247383884 501.7680556050153 487.30550440116417 Q 500.7072351914741 486.24468406393987 500.7072351914741 485.18386372671563 Q 500.7072351914741 484.1230433894914 499.6464147779328 483.0622230522671 Q 498.58559436439157 482.0014027150428 497.5247739508503 482.0014027150428 Q 496.463953537309 482.0014027150428 495.4031331237678 480.94058237781854 Q 494.34231271022657 479.8797620405943 494.34231271022657 478.81894170337 Q 494.34231271022657 477.75812136614576 493.2814922966853 474.575660354473 Q 492.220671883144 471.3931993428002 491.15985146960276 471.3931993428002 Q 490.0990310560615 471.3931993428002 489.03821064252026 469.27155866835164 Q 487.977390228979 467.1499179939031 486.9165698154377 466.08909765667886 Q 485.85574940189645 465.02827731945456 484.7949289883552 463.9674569822303 Q 483.73410857481394 462.9066366450061 480.5516473341902 459.7241756333333 Q 477.3691860935664 456.5417146216605 477.3691860935664 455.4808942844362 Q 477.3691860935664 454.4200739472119 477.3691860935664 453.35925360998766 Q 477.3691860935664 452.2984332727634 476.3083656800251 452.2984332727634 Q 475.2475452664838 452.2984332727634 474.1867248529426 450.17679259831493 Q 473.1259044394014 448.0551519238664 472.0650840258601 448.0551519238664 Q 471.0042636123188 448.0551519238664 469.9434431987776 446.99433158664215 Q 468.8826227852364 445.93351124941785 468.8826227852364 444.87269091219355 Q 468.8826227852364 443.81187057496925 468.8826227852364 442.751050237745 Q 468.8826227852364 441.69022990052076 467.82180237169507 441.69022990052076 Q 466.7609819581538 441.69022990052076 466.7609819581538 440.62940956329646 Q 466.7609819581538 439.5685892260722 465.70016154461257 439.5685892260722 Q 464.63934113107126 439.5685892260722 463.57852071753007 439.5685892260722 Q 462.5177003039888 439.5685892260722 461.45687989044757 439.5685892260722 Q 460.39605947690626 439.5685892260722 459.335239063365 439.5685892260722 Q 458.27441864982376 439.5685892260722 457.21359823628245 439.5685892260722 Q 456.1527778227412 439.5685892260722 457.21359823628245 439.5685892260722 Q 458.27441864982376 439.5685892260722 459.335239063365 439.5685892260722 Q 460.39605947690626 439.5685892260722 462.51770030398876 441.69022990052076 Q 464.63934113107126 443.81187057496925 466.7609819581538 445.93351124941785 Q 468.8826227852364 448.0551519238664 471.0042636123189 451.2376129355391 Q 473.1259044394014 454.4200739472119 475.2475452664839 457.6025349588847 Q 477.3691860935664 460.78499597055753 480.5516473341902 462.9066366450061 Q 483.73410857481394 465.02827731945456 486.9165698154377 469.27155866835164 Q 490.0990310560615 473.51484001724873 500.70723519147407 484.1230433894914 Q 511.3154393268867 494.731246761734 516.6195413945929 500.0353484478553 Q 521.9236434622993 505.33945013397664 525.1061047029231 508.5219111456495 Q 528.2885659435468 511.70437215732227 530.4102067706294 513.8260128317709 Q 532.5318475977119 515.9476535062194 534.6534884247944 519.1301145178921 Q 536.7751292518769 522.3125755295649 539.9575904925007 525.4950365412376 Q 543.1400517331244 528.6774975529104 544.2008721466657 529.7383178901347 Q 545.2616925602069 530.799138227359 545.2616925602069 531.8599585645833 Q 545.2616925602069 532.9207789018076 546.3225129737482 533.9815992390318 Q 547.3833333872894 535.0424195762561 548.4441538008307 537.1640602507046 Q 549.5049742143719 539.285700925153 550.5657946279132 540.3465212623773 Q 551.6266150414546 541.4073415996016 552.6874354549958 541.4073415996016 Q 553.7482558685371 541.4073415996016 553.7482558685371 542.4681619368259 Q 553.7482558685371 543.5289822740502 554.8090762820783 543.5289822740502 Q 555.8698966956196 543.5289822740502 555.8698966956196 544.5898026112745 Q 555.8698966956196 545.6506229484987 555.8698966956196 546.7114432857229 L 555.8698966956196 547.8022636229472" stroke-linecap="round" />
</g>
<g transform="matrix(1 0 0 1 642.86 542.34)"  >
<path style="stroke: rgb(200,20,20); stroke-width: 30; stroke-dasharray: none; stroke-linecap: round; stroke-dashoffset: 0; stroke-linejoin: round; stroke-miterlimit: 10; fill: none; fill-rule: nonzero; opacity: 1;" vector-effect="non-scaling-stroke"  transform=" translate(-642.86, -542.34)" d="M 604.6676357185174 428.9303858538296 Q 604.6676357185174 428.96038585382956 604.6676357185174 433.20366720272665 Q 604.6676357185174 437.44694855162373 604.6676357185174 443.8118705749693 Q 604.6676357185174 450.1767925983149 604.6676357185174 458.663355296109 Q 604.6676357185174 467.1499179939031 604.6676357185174 479.8797620405943 Q 604.6676357185174 492.60960608728544 604.6676357185174 504.2786297967524 Q 604.6676357185174 515.9476535062194 604.6676357185174 527.6166772156862 Q 604.6676357185174 539.285700925153 604.6676357185174 561.5629280068626 Q 604.6676357185174 583.8401550885723 605.7284561320587 590.2050771119178 Q 606.7892765455999 596.5699991352634 607.8500969591412 602.934921158609 Q 608.9109173726824 609.2998431819545 611.0325581997649 615.6647652053002 Q 613.1541990268474 622.0296872286458 613.1541990268474 624.1513279030943 Q 613.1541990268474 626.2729685775428 615.2758398539299 633.6987109381126 Q 617.3974806810126 641.1244532986825 617.3974806810126 642.1852736359067 Q 617.3974806810126 643.246093973131 618.4583010945538 645.3677346475795 Q 619.519121508095 647.4893753220281 619.519121508095 648.5501956592524 Q 619.519121508095 649.6110159964767 619.519121508095 650.6718363337009 Q 619.519121508095 651.7326566709252 619.519121508095 652.7934770081495 Q 619.519121508095 653.8542973453737 619.519121508095 654.9151176825978 Q 619.519121508095 655.9759380198221 619.519121508095 657.0367583570464 Q 619.519121508095 658.0975786942707 619.519121508095 659.158399031495 Q 619.519121508095 660.2192193687193 619.519121508095 661.2800397059436 Q 619.519121508095 662.3408600431678 619.519121508095 661.2800397059436 Q 619.519121508095 660.2192193687193 619.519121508095 657.0367583570464 Q 619.519121508095 653.8542973453737 619.519121508095 652.7934770081495 Q 619.519121508095 651.7326566709252 619.519121508095 648.5501956592523 Q 619.519121508095 645.3677346475795 619.519121508095 642.1852736359067 Q 619.519121508095 639.002812624234 619.519121508095 635.8203516125612 Q 619.519121508095 632.6378906008885 617.3974806810126 625.2121482403186 Q 615.27583985393 617.7864058797487 615.27583985393 614.6039448680759 Q 615.27583985393 611.4214838564031 615.27583985393 610.3606635191788 Q 615.27583985393 609.2998431819545 614.2150194403887 607.1782025075061 Q 613.1541990268474 605.0565618330575 613.1541990268474 602.934921158609 Q 613.1541990268474 600.8132804841605 613.1541990268474 598.6916398097119 Q 613.1541990268474 596.5699991352634 613.1541990268474 594.4483584608149 Q 613.1541990268474 592.3267177863663 612.0933786133062 592.3267177863663 Q 611.032558199765 592.3267177863663 611.032558199765 590.2050771119177 Q 611.032558199765 588.0834364374692 611.032558199765 585.9617957630207 Q 611.032558199765 583.8401550885723 609.9717377862237 580.6576940768994 Q 608.9109173726824 577.4752330652266 608.9109173726824 576.4144127280024 Q 608.9109173726824 575.3535923907781 607.8500969591412 574.2927720535538 Q 606.7892765455999 573.2319517163296 606.7892765455999 571.110311041881 Q 606.7892765455999 568.9886703674325 606.7892765455999 566.867029692984 Q 606.7892765455999 564.7453890185354 606.7892765455999 561.5629280068626 Q 606.7892765455999 558.3804669951899 605.7284561320587 556.2588263207414 Q 604.6676357185174 554.1371856462929 604.6676357185174 552.0155449718443 Q 604.6676357185174 549.8939042973957 604.6676357185174 546.7114432857229 Q 604.6676357185174 543.5289822740502 604.6676357185174 542.4681619368259 Q 604.6676357185174 541.4073415996016 603.6068153049762 540.3465212623773 Q 602.5459948914349 539.285700925153 602.5459948914349 538.2248805879287 Q 602.5459948914349 537.1640602507046 602.5459948914349 536.1032399134804 Q 602.5459948914349 535.0424195762561 602.5459948914349 533.9815992390318 Q 602.5459948914349 532.9207789018076 602.5459948914349 531.8599585645833 Q 602.5459948914349 530.799138227359 602.5459948914349 529.7383178901347 Q 602.5459948914349 528.6774975529104 602.5459948914349 527.6166772156862 Q 602.5459948914349 526.5558568784619 602.5459948914349 525.4950365412376 Q 602.5459948914349 524.4342162040134 602.5459948914349 522.3125755295648 Q 602.5459948914349 520.1909348551163 602.5459948914349 519.130114517892 Q 602.5459948914349 518.0692941806678 602.5459948914349 517.0084738434437 Q 602.5459948914349 515.9476535062194 602.5459948914349 514.886833168995 Q 602.5459948914349 513.8260128317708 602.5459948914349 512.7651924945465 Q 602.5459948914349 511.70437215732227 602.5459948914349 510.64355182009797 Q 602.5459948914349 509.5827314828737 602.5459948914349 508.5219111456494 Q 602.5459948914349 507.4610908084251 602.5459948914349 506.4002704712009 Q 602.5459948914349 505.33945013397664 602.5459948914349 504.2786297967524 Q 602.5459948914349 503.2178094595281 602.5459948914349 502.15698912230386 Q 602.5459948914349 501.0961687850796 602.5459948914349 500.0353484478553 Q 602.5459948914349 498.97452811063107 602.5459948914349 497.91370777340677 Q 602.5459948914349 496.85288743618247 602.5459948914349 494.7312467617339 Q 602.5459948914349 492.60960608728544 602.5459948914349 491.5487857500612 Q 602.5459948914349 490.48796541283696 602.5459948914349 489.42714507561266 Q 602.5459948914349 488.3663247383884 603.6068153049762 487.30550440116417 Q 604.6676357185174 486.24468406393987 604.6676357185174 485.18386372671563 Q 604.6676357185174 484.1230433894914 604.6676357185174 483.0622230522671 Q 604.6676357185174 482.0014027150428 604.6676357185174 480.94058237781854 Q 604.6676357185174 479.8797620405943 604.6676357185174 478.81894170337 Q 604.6676357185174 477.75812136614576 604.6676357185174 476.6973010289215 Q 604.6676357185174 475.6364806916972 604.6676357185174 474.575660354473 Q 604.6676357185174 473.51484001724873 604.6676357185174 472.45401968002443 Q 604.6676357185174 471.3931993428002 604.6676357185174 470.33237900557594 Q 604.6676357185174 469.2715586683517 604.6676357185174 468.2107383311274 Q 604.6676357185174 467.1499179939031 604.6676357185174 466.08909765667886 Q 604.6676357185174 465.02827731945456 604.6676357185174 463.9674569822303 Q 604.6676357185174 462.9066366450061 604.6676357185174 461.8458163077818 Q 604.6676357185174 460.78499597055753 604.6676357185174 459.7241756333333 Q 604.6676357185174 458.66335529610905 604.6676357185174 457.6025349588848 Q 604.6676357185174 456.5417146216605 604.6676357185174 455.4808942844362 Q 604.6676357185174 454.4200739472119 605.7284561320587 453.35925360998766 Q 606.7892765455999 452.2984332727634 606.7892765455999 450.17679259831493 Q 606.7892765455999 448.0551519238664 606.7892765455999 446.99433158664215 Q 606.7892765455999 445.93351124941785 606.7892765455999 444.87269091219355 Q 606.7892765455999 443.81187057496925 606.7892765455999 442.751050237745 Q 606.7892765455999 441.69022990052076 606.7892765455999 440.62940956329646 Q 606.7892765455999 439.5685892260722 606.7892765455999 438.507768888848 Q 606.7892765455999 437.44694855162373 607.8500969591412 437.44694855162373 Q 608.9109173726824 437.44694855162373 608.9109173726824 436.3861282143995 Q 608.9109173726824 435.3253078771752 608.9109173726824 434.2644875399509 Q 608.9109173726824 433.20366720272665 609.9717377862237 432.1428468655024 Q 611.032558199765 431.08202652827816 612.0933786133062 431.08202652827816 Q 613.1541990268474 431.08202652827816 613.1541990268474 430.02120619105386 Q 613.1541990268474 428.96038585382956 614.2150194403887 428.96038585382956 Q 615.27583985393 428.96038585382956 616.3366602674713 427.8995655166053 Q 617.3974806810126 426.8387451793811 618.4583010945538 425.77792484215684 Q 619.519121508095 424.71710450493254 620.5799419216363 424.71710450493254 Q 621.6407623351776 424.71710450493254 621.6407623351776 423.65628416770824 Q 621.6407623351776 422.595463830484 623.7624031622601 422.595463830484 Q 625.8840439893426 422.595463830484 628.0056848164252 422.595463830484 Q 630.1273256435077 422.595463830484 631.1881460570489 422.595463830484 Q 632.2489664705902 422.595463830484 634.3706072976727 422.595463830484 Q 636.4922481247552 422.595463830484 638.6138889518377 422.595463830484 Q 640.7355297789202 422.595463830484 643.9179910195439 422.595463830484 Q 647.1004522601678 422.595463830484 650.2829135007916 422.595463830484 Q 653.4653747414153 422.595463830484 654.5261951549566 422.595463830484 Q 655.5870155684978 422.595463830484 656.6478359820392 422.595463830484 Q 657.7086563955804 422.595463830484 658.7694768091217 422.595463830484 Q 659.8302972226629 422.595463830484 660.8911176362042 422.595463830484 Q 661.9519380497454 422.595463830484 663.0127584632867 422.595463830484 Q 664.0735788768279 422.595463830484 664.0735788768279 423.65628416770824 Q 664.0735788768279 424.71710450493254 665.1343992903692 424.71710450493254 Q 666.1952197039104 424.71710450493254 667.2560401174517 425.77792484215684 Q 668.3168605309929 426.8387451793811 669.3776809445342 426.8387451793811 Q 670.4385013580755 426.8387451793811 671.4993217716167 427.8995655166053 Q 672.5601421851579 428.96038585382956 672.5601421851579 430.02120619105386 Q 672.5601421851579 431.08202652827816 673.6209625986992 432.1428468655024 Q 674.6817830122405 433.20366720272665 675.7426034257818 434.2644875399509 Q 676.803423839323 435.3253078771752 677.8642442528643 437.4469485516237 Q 678.9250646664055 439.5685892260722 679.9858850799468 440.62940956329646 Q 681.046705493488 441.69022990052076 681.046705493488 442.751050237745 Q 681.046705493488 443.81187057496925 681.046705493488 445.93351124941785 Q 681.046705493488 448.0551519238664 682.1075259070294 448.0551519238664 Q 683.1683463205707 448.0551519238664 683.1683463205707 450.17679259831493 Q 683.1683463205707 452.2984332727634 683.1683463205707 453.35925360998766 Q 683.1683463205707 454.4200739472119 683.1683463205707 455.4808942844362 Q 683.1683463205707 456.5417146216605 683.1683463205707 457.6025349588848 Q 683.1683463205707 458.66335529610905 683.1683463205707 461.8458163077818 Q 683.1683463205707 465.02827731945456 683.1683463205707 466.08909765667886 Q 683.1683463205707 467.1499179939031 683.1683463205707 469.27155866835164 Q 683.1683463205707 471.3931993428002 682.1075259070294 472.45401968002443 Q 681.046705493488 473.51484001724873 681.046705493488 474.575660354473 Q 681.046705493488 475.6364806916972 679.9858850799468 476.6973010289215 Q 678.9250646664055 477.75812136614576 678.9250646664055 479.8797620405943 Q 678.9250646664055 482.0014027150428 677.8642442528643 482.0014027150428 Q 676.803423839323 482.0014027150428 675.7426034257818 483.0622230522671 Q 674.6817830122405 484.1230433894914 674.6817830122405 485.18386372671563 Q 674.6817830122405 486.24468406393987 673.6209625986992 486.24468406393987 Q 672.5601421851579 486.24468406393987 672.5601421851579 487.30550440116417 Q 672.5601421851579 488.3663247383884 672.5601421851579 489.42714507561266 Q 672.5601421851579 490.48796541283696 671.4993217716167 490.48796541283696 Q 670.4385013580755 490.48796541283696 669.3776809445342 490.48796541283696 Q 668.3168605309929 490.48796541283696 667.2560401174517 491.5487857500612 Q 666.1952197039104 492.60960608728544 665.1343992903692 493.67042642450974 Q 664.0735788768279 494.731246761734 664.0735788768279 495.7920670989582 Q 664.0735788768279 496.85288743618247 663.0127584632867 497.91370777340677 Q 661.9519380497454 498.97452811063107 660.8911176362042 498.97452811063107 Q 659.8302972226629 498.97452811063107 658.7694768091217 498.97452811063107 Q 657.7086563955804 498.97452811063107 656.6478359820392 498.97452811063107 Q 655.5870155684978 498.97452811063107 655.5870155684978 500.0353484478553 Q 655.5870155684978 501.0961687850796 654.5261951549566 501.0961687850796 Q 653.4653747414153 501.0961687850796 652.404554327874 502.15698912230386 Q 651.3437339143328 503.2178094595281 650.2829135007916 503.2178094595281 Q 649.2220930872503 503.2178094595281 648.161272673709 503.2178094595281 Q 647.1004522601678 503.2178094595281 646.0396318466264 504.2786297967524 Q 644.9788114330852 505.33945013397664 643.9179910195439 505.33945013397664 Q 642.8571706060028 505.33945013397664 641.7963501924614 506.4002704712009 Q 640.7355297789202 507.4610908084251 639.6747093653789 507.4610908084251 Q 638.6138889518378 507.4610908084251 637.5530685382964 507.4610908084251 Q 636.4922481247552 507.4610908084251 635.4314277112139 508.5219111456494 Q 634.3706072976727 509.5827314828737 633.3097868841314 509.5827314828737 Q 632.2489664705902 509.5827314828737 631.1881460570489 509.5827314828737 Q 630.1273256435077 509.5827314828737 630.1273256435077 510.64355182009797 Q 630.1273256435077 511.70437215732227 629.0665052299664 511.70437215732227 Q 628.0056848164252 511.70437215732227 626.9448644028839 511.70437215732227 Q 625.8840439893426 511.70437215732227 624.8232235758013 511.70437215732227 Q 623.7624031622601 511.70437215732227 623.7624031622601 512.7651924945465 Q 623.7624031622601 513.8260128317708 622.7015827487188 513.8260128317708 Q 621.6407623351776 513.8260128317708 620.5799419216363 513.8260128317708 Q 619.519121508095 513.8260128317708 618.4583010945538 514.886833168995 L 617.3674806810126 515.9776535062193" stroke-linecap="round" />
</g>
<g transform="matrix(1 0 0 1 785.01 550.81)"  >
<path style="stroke: rgb(200,20,20); stroke-width: 30; stroke-dasharray: none; stroke-linecap: round; stroke-dashoffset: 0; stroke-linejoin: round; stroke-miterlimit: 10; fill: none; fill-rule: nonzero; opacity: 1;" vector-effect="non-scaling-stroke"  transform=" translate(-785.01, -550.81)" d="M 744.6959303059637 426.8087451793811 Q 744.6959303059637 426.8387451793811 744.6959303059637 428.9603858538296 Q 744.6959303059637 431.08202652827816 744.6959303059637 435.3253078771752 Q 744.6959303059637 439.5685892260722 744.6959303059637 445.93351124941785 Q 744.6959303059637 452.2984332727634 746.8175711330462 462.9066366450061 Q 748.9392119601285 473.51484001724873 748.9392119601285 482.00140271504284 Q 748.9392119601285 490.48796541283696 750.0000323736699 498.974528110631 Q 751.0608527872112 507.4610908084251 753.1824936142937 523.3733958667891 Q 755.3041344413762 539.285700925153 756.3649548549174 541.4073415996016 Q 757.4257752684588 543.5289822740502 757.4257752684588 546.7114432857229 Q 757.4257752684588 549.8939042973957 757.4257752684588 553.0763653090685 Q 757.4257752684588 556.2588263207414 757.4257752684588 557.3196466579657 Q 757.4257752684588 558.3804669951899 757.4257752684588 560.5021076696385 Q 757.4257752684588 562.623748344087 757.4257752684588 564.7453890185354 Q 757.4257752684588 566.8670296929839 757.4257752684588 567.9278500302082 Q 757.4257752684588 568.9886703674325 757.4257752684588 570.0494907046568 Q 757.4257752684588 571.110311041881 757.4257752684588 572.1711313791053 Q 757.4257752684588 573.2319517163296 757.4257752684588 574.2927720535538 Q 757.4257752684588 575.3535923907781 757.4257752684588 576.4144127280024 Q 757.4257752684588 577.4752330652266 757.4257752684588 578.5360534024509 Q 757.4257752684588 579.5968737396752 757.4257752684588 580.6576940768994 Q 757.4257752684588 581.7185144141237 757.4257752684588 582.779334751348 Q 757.4257752684588 583.8401550885723 757.4257752684588 584.9009754257966 Q 757.4257752684588 585.9617957630207 757.4257752684588 587.0226161002449 Q 757.4257752684588 588.0834364374692 757.4257752684588 589.1442567746935 Q 757.4257752684588 590.2050771119178 757.4257752684588 591.2658974491421 Q 757.4257752684588 592.3267177863663 757.4257752684588 593.3875381235906 Q 757.4257752684588 594.4483584608149 757.4257752684588 595.5091787980391 Q 757.4257752684588 596.5699991352634 757.4257752684588 597.6308194724877 Q 757.4257752684588 598.6916398097119 757.4257752684588 599.7524601469362 Q 757.4257752684588 600.8132804841605 757.4257752684588 601.8741008213847 Q 757.4257752684588 602.934921158609 757.4257752684588 603.9957414958333 Q 757.4257752684588 605.0565618330575 757.4257752684588 606.1173821702818 Q 757.4257752684588 607.1782025075061 757.4257752684588 608.2390228447302 Q 757.4257752684588 609.2998431819545 758.4865956819999 609.2998431819545 Q 759.5474160955412 609.2998431819545 759.5474160955412 610.3606635191788 Q 759.5474160955412 611.4214838564031 759.5474160955412 613.5431245308516 Q 759.5474160955412 615.6647652053001 760.6082365090824 616.7255855425244 Q 761.6690569226237 617.7864058797487 761.6690569226237 619.9080465541972 Q 761.6690569226237 622.0296872286458 761.6690569226237 625.2121482403186 Q 761.6690569226237 628.3946092519914 762.7298773361649 630.51624992644 Q 763.7906977497063 632.6378906008885 763.7906977497063 633.6987109381128 Q 763.7906977497063 634.7595312753369 763.7906977497063 635.8203516125611 Q 763.7906977497063 636.8811719497854 763.7906977497063 639.0028126242339 Q 763.7906977497063 641.1244532986825 764.8515181632475 643.246093973131 Q 765.9123385767888 645.3677346475795 765.9123385767888 646.4285549848038 Q 765.9123385767888 647.4893753220281 765.9123385767888 648.5501956592524 Q 765.9123385767888 649.6110159964767 766.97315899033 650.6718363337009 Q 768.0339794038713 651.7326566709252 768.0339794038713 654.915117682598 Q 768.0339794038713 658.0975786942707 768.0339794038713 659.158399031495 Q 768.0339794038713 660.2192193687193 768.0339794038713 661.2800397059436 Q 768.0339794038713 662.3408600431678 768.0339794038713 663.401680380392 Q 768.0339794038713 664.4625007176163 768.0339794038713 665.5233210548406 Q 768.0339794038713 666.5841413920648 768.0339794038713 667.6449617292891 Q 768.0339794038713 668.7057820665134 768.0339794038713 669.7666024037377 Q 768.0339794038713 670.827422740962 768.0339794038713 671.8882430781862 Q 768.0339794038713 672.9490634154105 768.0339794038713 674.0098837526348 Q 768.0339794038713 675.070704089859 768.0339794038713 674.0098837526348 Q 768.0339794038713 672.9490634154105 768.0339794038713 671.8882430781862 Q 768.0339794038713 670.827422740962 768.0339794038713 669.7666024037377 Q 768.0339794038713 668.7057820665134 768.0339794038713 667.6449617292891 Q 768.0339794038713 666.5841413920648 768.0339794038713 663.401680380392 Q 768.0339794038713 660.2192193687193 768.0339794038713 658.0975786942707 Q 768.0339794038713 655.9759380198221 768.0339794038713 651.732656670925 Q 768.0339794038713 647.4893753220281 768.0339794038713 645.3677346475795 Q 768.0339794038713 643.246093973131 768.0339794038713 641.1244532986825 Q 768.0339794038713 639.002812624234 768.0339794038713 636.8811719497855 Q 768.0339794038713 634.7595312753369 768.0339794038713 633.6987109381128 Q 768.0339794038713 632.6378906008885 768.0339794038713 631.5770702636642 Q 768.0339794038713 630.5162499264399 768.0339794038713 628.3946092519914 Q 768.0339794038713 626.2729685775428 768.0339794038713 625.2121482403186 Q 768.0339794038713 624.1513279030943 768.0339794038713 623.09050756587 Q 768.0339794038713 622.0296872286458 768.0339794038713 620.9688668914215 Q 768.0339794038713 619.9080465541972 768.0339794038713 618.847226216973 Q 768.0339794038713 617.7864058797487 768.0339794038713 616.7255855425244 Q 768.0339794038713 615.6647652053001 768.0339794038713 612.4823041936273 Q 768.0339794038713 609.2998431819545 768.0339794038713 607.1782025075061 Q 768.0339794038713 605.0565618330575 766.97315899033 605.0565618330575 Q 765.9123385767888 605.0565618330575 765.9123385767888 602.934921158609 Q 765.9123385767888 600.8132804841605 765.9123385767888 599.7524601469362 Q 765.9123385767888 598.6916398097119 765.9123385767888 596.5699991352634 Q 765.9123385767888 594.4483584608149 765.9123385767888 593.3875381235906 Q 765.9123385767888 592.3267177863663 765.9123385767888 591.2658974491421 Q 765.9123385767888 590.2050771119178 765.9123385767888 588.0834364374693 Q 765.9123385767888 585.9617957630207 765.9123385767888 584.9009754257966 Q 765.9123385767888 583.8401550885723 764.8515181632475 583.8401550885723 Q 763.7906977497063 583.8401550885723 763.7906977497063 582.779334751348 Q 763.7906977497063 581.7185144141237 762.7298773361649 580.6576940768994 Q 761.6690569226237 579.5968737396752 761.6690569226237 578.5360534024509 Q 761.6690569226237 577.4752330652266 761.6690569226237 576.4144127280024 Q 761.6690569226237 575.3535923907781 760.6082365090824 574.2927720535538 Q 759.5474160955412 573.2319517163296 759.5474160955412 571.110311041881 Q 759.5474160955412 568.9886703674325 759.5474160955412 567.9278500302082 Q 759.5474160955412 566.8670296929839 759.5474160955412 564.7453890185354 Q 759.5474160955412 562.623748344087 759.5474160955412 561.5629280068626 Q 759.5474160955412 560.5021076696383 759.5474160955412 559.441287332414 Q 759.5474160955412 558.3804669951899 759.5474160955412 557.3196466579657 Q 759.5474160955412 556.2588263207414 759.5474160955412 554.1371856462929 Q 759.5474160955412 552.0155449718443 759.5474160955412 550.95472463462 Q 759.5474160955412 549.8939042973957 759.5474160955412 548.8330839601715 Q 759.5474160955412 547.7722636229472 759.5474160955412 545.6506229484987 Q 759.5474160955412 543.5289822740502 758.4865956819999 542.4681619368259 Q 757.4257752684588 541.4073415996016 757.4257752684588 540.3465212623773 Q 757.4257752684588 539.285700925153 757.4257752684588 538.2248805879287 Q 757.4257752684588 537.1640602507046 757.4257752684588 536.1032399134804 Q 757.4257752684588 535.0424195762561 757.4257752684588 533.9815992390318 Q 757.4257752684588 532.9207789018076 757.4257752684588 530.799138227359 Q 757.4257752684588 528.6774975529104 757.4257752684588 527.6166772156862 Q 757.4257752684588 526.5558568784619 757.4257752684588 525.4950365412376 Q 757.4257752684588 524.4342162040134 756.3649548549174 524.4342162040134 Q 755.3041344413762 524.4342162040134 755.3041344413762 523.3733958667892 Q 755.3041344413762 522.3125755295649 754.2433140278349 521.2517551923406 Q 753.1824936142937 520.1909348551163 753.1824936142937 519.130114517892 Q 753.1824936142937 518.0692941806678 753.1824936142937 517.0084738434437 Q 753.1824936142937 515.9476535062194 753.1824936142937 514.886833168995 Q 753.1824936142937 513.8260128317708 753.1824936142937 512.7651924945465 Q 753.1824936142937 511.70437215732227 753.1824936142937 510.64355182009797 Q 753.1824936142937 509.5827314828737 753.1824936142937 508.5219111456494 Q 753.1824936142937 507.4610908084251 753.1824936142937 506.4002704712009 Q 753.1824936142937 505.33945013397664 753.1824936142937 504.2786297967524 Q 753.1824936142937 503.2178094595281 752.1216732007524 502.15698912230386 Q 751.0608527872112 501.0961687850796 751.0608527872112 500.0353484478553 Q 751.0608527872112 498.97452811063107 751.0608527872112 497.91370777340677 Q 751.0608527872112 496.85288743618247 751.0608527872112 495.7920670989582 Q 751.0608527872112 494.731246761734 751.0608527872112 493.67042642450974 Q 751.0608527872112 492.60960608728544 751.0608527872112 491.5487857500612 Q 751.0608527872112 490.48796541283696 751.0608527872112 489.42714507561266 Q 751.0608527872112 488.3663247383884 751.0608527872112 487.30550440116417 Q 751.0608527872112 486.24468406393987 751.0608527872112 485.18386372671563 Q 751.0608527872112 484.1230433894914 751.0608527872112 483.0622230522671 Q 751.0608527872112 482.0014027150428 751.0608527872112 480.94058237781854 Q 751.0608527872112 479.8797620405943 751.0608527872112 478.81894170337 Q 751.0608527872112 477.75812136614576 751.0608527872112 476.6973010289215 Q 751.0608527872112 475.6364806916972 751.0608527872112 474.575660354473 Q 751.0608527872112 473.51484001724873 751.0608527872112 472.45401968002443 Q 751.0608527872112 471.3931993428002 751.0608527872112 470.33237900557594 Q 751.0608527872112 469.2715586683517 751.0608527872112 468.2107383311274 Q 751.0608527872112 467.1499179939031 751.0608527872112 466.08909765667886 Q 751.0608527872112 465.02827731945456 751.0608527872112 463.9674569822303 Q 751.0608527872112 462.9066366450061 751.0608527872112 461.8458163077818 Q 751.0608527872112 460.78499597055753 751.0608527872112 459.7241756333333 Q 751.0608527872112 458.66335529610905 751.0608527872112 457.6025349588848 Q 751.0608527872112 456.5417146216605 751.0608527872112 455.4808942844362 Q 751.0608527872112 454.4200739472119 751.0608527872112 453.35925360998766 Q 751.0608527872112 452.2984332727634 751.0608527872112 451.2376129355391 Q 751.0608527872112 450.1767925983149 751.0608527872112 449.11597226109063 Q 751.0608527872112 448.0551519238664 751.0608527872112 446.99433158664215 Q 751.0608527872112 445.93351124941785 751.0608527872112 444.87269091219355 Q 751.0608527872112 443.81187057496925 751.0608527872112 442.751050237745 Q 751.0608527872112 441.69022990052076 752.1216732007524 441.69022990052076 Q 753.1824936142937 441.69022990052076 753.1824936142937 440.62940956329646 Q 753.1824936142937 439.5685892260722 754.2433140278349 439.5685892260722 Q 755.3041344413762 439.5685892260722 756.3649548549174 438.507768888848 Q 757.4257752684588 437.44694855162373 758.4865956819999 437.44694855162373 Q 759.5474160955412 437.44694855162373 759.5474160955412 436.3861282143995 Q 759.5474160955412 435.3253078771752 761.6690569226237 434.2644875399509 Q 763.7906977497063 433.20366720272665 764.8515181632475 433.20366720272665 Q 765.9123385767888 433.20366720272665 766.97315899033 432.1428468655024 Q 768.0339794038713 431.08202652827816 769.0947998174125 431.08202652827816 Q 770.1556202309538 431.08202652827816 771.216440644495 431.08202652827816 Q 772.2772610580363 431.08202652827816 773.3380814715775 431.08202652827816 Q 774.3989018851188 431.08202652827816 774.3989018851188 430.02120619105386 Q 774.3989018851188 428.96038585382956 775.4597222986602 428.96038585382956 Q 776.5205427122014 428.96038585382956 777.5813631257427 428.96038585382956 Q 778.6421835392839 428.96038585382956 779.7030039528252 428.96038585382956 Q 780.7638243663663 428.96038585382956 781.8246447799077 428.96038585382956 Q 782.8854651934489 428.96038585382956 783.9462856069902 428.96038585382956 Q 785.0071060205314 428.96038585382956 786.0679264340727 428.96038585382956 Q 787.1287468476139 428.96038585382956 789.2503876746964 428.96038585382956 Q 791.3720285017789 428.96038585382956 792.4328489153202 428.96038585382956 Q 793.4936693288614 428.96038585382956 794.5544897424027 428.96038585382956 Q 795.615310155944 428.96038585382956 795.615310155944 430.02120619105386 Q 795.615310155944 431.08202652827816 796.6761305694853 431.08202652827816 Q 797.7369509830265 431.08202652827816 798.7977713965679 431.08202652827816 Q 799.8585918101091 431.08202652827816 800.9194122236504 431.08202652827816 Q 801.9802326371915 431.08202652827816 803.0410530507328 431.08202652827816 Q 804.101873464274 431.08202652827816 805.1626938778153 432.1428468655024 Q 806.2235142913565 433.20366720272665 807.2843347048979 434.2644875399509 Q 808.3451551184392 435.3253078771752 809.4059755319804 435.3253078771752 Q 810.4667959455217 435.3253078771752 811.5276163590629 436.3861282143995 Q 812.588436772604 437.44694855162373 812.588436772604 438.507768888848 Q 812.588436772604 439.5685892260722 813.6492571861454 439.5685892260722 Q 814.7100775996867 439.5685892260722 815.7708980132279 439.5685892260722 Q 816.8317184267692 439.5685892260722 816.8317184267692 440.62940956329646 Q 816.8317184267692 441.69022990052076 816.8317184267692 442.751050237745 Q 816.8317184267692 443.81187057496925 817.8925388403104 443.81187057496925 Q 818.9533592538518 443.81187057496925 820.014179667393 443.81187057496925 Q 821.0750000809343 443.81187057496925 821.0750000809343 444.87269091219355 Q 821.0750000809343 445.93351124941785 821.0750000809343 446.99433158664215 Q 821.0750000809343 448.0551519238664 822.1358204944754 448.0551519238664 Q 823.1966409080167 448.0551519238664 824.2574613215579 449.11597226109063 Q 825.3182817350992 450.1767925983149 825.3182817350992 451.2376129355391 Q 825.3182817350992 452.2984332727634 825.3182817350992 453.35925360998766 Q 825.3182817350992 454.4200739472119 825.3182817350992 455.4808942844362 Q 825.3182817350992 456.5417146216605 825.3182817350992 457.6025349588848 Q 825.3182817350992 458.66335529610905 825.3182817350992 459.7241756333333 Q 825.3182817350992 460.78499597055753 825.3182817350992 461.8458163077818 Q 825.3182817350992 462.9066366450061 825.3182817350992 463.9674569822303 Q 825.3182817350992 465.02827731945456 825.3182817350992 466.08909765667886 Q 825.3182817350992 467.1499179939031 825.3182817350992 468.2107383311274 Q 825.3182817350992 469.2715586683517 825.3182817350992 470.33237900557594 Q 825.3182817350992 471.3931993428002 825.3182817350992 472.45401968002443 Q 825.3182817350992 473.51484001724873 824.2574613215579 473.51484001724873 Q 823.1966409080167 473.51484001724873 823.1966409080167 475.6364806916972 Q 823.1966409080167 477.75812136614576 822.1358204944754 477.75812136614576 Q 821.0750000809343 477.75812136614576 821.0750000809343 478.81894170337 Q 821.0750000809343 479.8797620405943 820.014179667393 480.94058237781854 Q 818.9533592538518 482.0014027150428 818.9533592538518 483.0622230522671 Q 818.9533592538518 484.1230433894914 818.9533592538518 485.18386372671563 Q 818.9533592538518 486.24468406393987 817.8925388403104 486.24468406393987 Q 816.8317184267692 486.24468406393987 816.8317184267692 487.30550440116417 Q 816.8317184267692 488.3663247383884 816.8317184267692 489.42714507561266 Q 816.8317184267692 490.48796541283696 815.7708980132279 490.48796541283696 Q 814.7100775996867 490.48796541283696 813.6492571861454 490.48796541283696 Q 812.588436772604 490.48796541283696 812.588436772604 491.5487857500612 Q 812.588436772604 492.60960608728544 811.5276163590629 492.60960608728544 Q 810.4667959455217 492.60960608728544 810.4667959455217 493.67042642450974 Q 810.4667959455217 494.731246761734 809.4059755319804 494.731246761734 Q 808.3451551184392 494.731246761734 807.2843347048979 495.7920670989582 Q 806.2235142913565 496.85288743618247 806.2235142913565 497.91370777340677 Q 806.2235142913565 498.97452811063107 805.1626938778153 498.97452811063107 Q 804.101873464274 498.97452811063107 803.0410530507328 498.97452811063107 Q 801.9802326371915 498.97452811063107 800.9194122236504 498.97452811063107 Q 799.8585918101091 498.97452811063107 799.8585918101091 500.0353484478553 Q 799.8585918101091 501.0961687850796 799.8585918101091 502.15698912230386 Q 799.8585918101091 503.2178094595281 798.7977713965679 503.2178094595281 Q 797.7369509830265 503.2178094595281 796.6761305694853 503.2178094595281 Q 795.615310155944 503.2178094595281 794.5544897424027 503.2178094595281 Q 793.4936693288614 503.2178094595281 793.4936693288614 504.2786297967524 Q 793.4936693288614 505.33945013397664 792.4328489153202 505.33945013397664 Q 791.3720285017789 505.33945013397664 790.3112080882377 506.4002704712009 Q 789.2503876746965 507.4610908084251 788.1895672611552 507.4610908084251 Q 787.1287468476139 507.4610908084251 786.0679264340727 507.4610908084251 Q 785.0071060205314 507.4610908084251 783.9462856069902 508.5219111456494 Q 782.8854651934489 509.5827314828737 781.8246447799077 510.64355182009797 Q 780.7638243663663 511.70437215732227 779.7030039528252 511.70437215732227 Q 778.6421835392839 511.70437215732227 777.5813631257427 511.70437215732227 Q 776.5205427122014 511.70437215732227 775.4597222986602 512.7651924945465 Q 774.3989018851188 513.8260128317708 774.3989018851188 514.886833168995 L 774.3989018851188 515.9776535062193" stroke-linecap="round" />
</g>
</svg>